<svg width="34" height="31" fill="none" xmlns="http://www.w3.org/2000/svg"><path fill-rule="evenodd" clip-rule="evenodd" d="M9.031 3.321c-2.838 0-5.844 2.578-5.844 6.643 0 4.76 3.359 9.176 7.15 12.582A43.836 43.836 0 0017 27.443a43.827 43.827 0 006.663-4.897c3.791-3.406 7.15-7.821 7.15-12.582 0-4.065-3.006-6.643-5.844-6.643-2.918 0-5.544 2.183-6.437 5.439-.195.713-.82 1.204-1.532 1.204-.712 0-1.337-.491-1.532-1.204-.893-3.256-3.519-5.439-6.437-5.439zM17 29.34a221.028 221.028 0 01-.733 1.474l-.005-.002-.012-.007-.039-.021a29.1 29.1 0 01-.659-.378 47.06 47.06 0 01-7.296-5.344C4.345 21.548 0 16.276 0 9.964 0 4.065 4.432 0 9.031 0 12.32 0 15.2 1.775 17 4.473 18.8 1.775 21.68 0 24.969 0 29.568 0 34 4.065 34 9.964c0 6.312-4.345 11.584-8.256 15.098a47.074 47.074 0 01-7.296 5.344 29.1 29.1 0 01-.66.378l-.038.021-.012.007-.005.002L17 29.34zm0 0l.733 1.474a1.54 1.54 0 01-1.466 0L17 29.34z" fill="#090528"/></svg>