<svg width="29" height="34" fill="none" xmlns="http://www.w3.org/2000/svg"><path fill-rule="evenodd" clip-rule="evenodd" d="M22.388 6.687a11.287 11.287 0 012.419 3.66 11.388 11.388 0 010 8.634 11.286 11.286 0 01-2.419 3.66l-7.888 7.97-7.888-7.974a11.289 11.289 0 01-2.418-3.66 11.39 11.39 0 010-8.633 11.29 11.29 0 012.418-3.66 11.148 11.148 0 013.619-2.445 11.048 11.048 0 018.538 0 11.15 11.15 0 013.619 2.445v.002zm2.365 18.345a14.715 14.715 0 003.968-7.508c.56-2.844.273-5.793-.825-8.472a14.63 14.63 0 00-5.34-6.58A14.386 14.386 0 0014.5 0c-2.868 0-5.671.86-8.056 2.471a14.629 14.629 0 00-5.34 6.58 14.816 14.816 0 00-.825 8.473 14.714 14.714 0 003.968 7.508l7.886 7.976A3.341 3.341 0 0014.5 34a3.312 3.312 0 002.367-.992l7.886-7.977zM14.5 19.175a4.437 4.437 0 003.155-1.321 4.537 4.537 0 001.306-3.19c0-1.197-.47-2.344-1.306-3.19a4.437 4.437 0 00-3.155-1.322 4.437 4.437 0 00-3.155 1.322 4.538 4.538 0 00-1.306 3.19 4.54 4.54 0 001.306 3.19 4.437 4.437 0 003.155 1.321z" fill="#090528"/></svg>