<svg width="34" height="39" fill="none" xmlns="http://www.w3.org/2000/svg"><path fill-rule="evenodd" clip-rule="evenodd" d="M28.546 10.54L17 3.72 5.456 10.538l11.546 6.819 11.544-6.817zM3.64 13.758v13.633l11.544 6.816v-13.63L3.64 13.759zm15.181 20.446l11.539-6.813V13.764l-11.54 6.814v13.627zM15.181.498a3.575 3.575 0 013.638 0L32.18 8.386a3.68 3.68 0 011.332 1.363c.32.566.488 1.208.487 1.862v15.78c0 .654-.168 1.295-.487 1.86a3.679 3.679 0 01-1.332 1.363L18.82 38.5a3.574 3.574 0 01-3.638 0L1.82 30.614A3.678 3.678 0 01.487 29.25 3.785 3.785 0 010 27.389V11.613c0-.653.167-1.295.487-1.861a3.68 3.68 0 011.332-1.363L15.184.5 15.18.498z" fill="#2FAA63"/></svg>