<svg width="25" height="30" fill="none" xmlns="http://www.w3.org/2000/svg"><path fill-rule="evenodd" clip-rule="evenodd" d="M12.499 27.177c5.448 0 9.616-3.728 9.616-8.469 0-2.805-1.351-4.163-3.732-6.484-1.959-1.91-4.388-4.307-5.401-8.298a7.37 7.37 0 00-1.531 1.598c-.937 1.355-1.37 3.083-.22 5.335.91 1.782 1.288 4.298-.535 6.081-1.086 1.063-2.943 1.81-4.96.984-.905-.371-1.654-.99-2.278-1.765a5.83 5.83 0 00-.573 2.55c0 4.76 4.162 8.468 9.614 8.468zM15.416.829c-.031-.519-.463-.937-.976-.804-3.287.847-9.126 5.567-5.79 12.096.663 1.296.548 2.293.006 2.823-.888.868-2.594.935-3.99-2.402-.204-.49-.768-.766-1.234-.494C1.313 13.283 0 15.952 0 18.708 0 25.318 5.766 30 12.499 30 19.23 30 25 25.295 25 18.708c0-4.022-2.168-6.134-4.445-8.352C18.188 8.05 15.703 5.63 15.415.83z" fill="#FF31AD"/></svg>