<svg width="21" height="18" fill="none" xmlns="http://www.w3.org/2000/svg"><path fill-rule="evenodd" clip-rule="evenodd" d="M2.297 0C1.028 0 0 1.045 0 2.333v5.334C0 8.162.152 8.622.412 9 .152 9.378 0 9.838 0 10.333v5.334C0 16.955 1.028 18 2.297 18h16.406C19.972 18 21 16.955 21 15.667v-5.334c0-.495-.152-.955-.412-1.333.26-.378.412-.838.412-1.333V2.333C21 1.045 19.972 0 18.703 0H2.297zm0 10a.33.33 0 00-.328.333v5.334a.33.33 0 00.328.333h16.406a.33.33 0 00.328-.333v-5.334a.33.33 0 00-.328-.333H2.297zm-.328-7.667A.33.33 0 012.297 2h16.406a.33.33 0 01.328.333v5.334a.33.33 0 01-.328.333H2.297a.33.33 0 01-.328-.333V2.333zM9.187 5c0-.552.441-1 .985-1h5.906c.544 0 .985.448.985 1s-.441 1-.985 1h-5.906a.992.992 0 01-.985-1zm.985 7a.992.992 0 00-.985 1c0 .552.441 1 .985 1h5.906a.992.992 0 00.985-1c0-.552-.441-1-.985-1h-5.906zM3.937 5c0-.552.441-1 .985-1h.656c.544 0 .984.448.984 1s-.44 1-.984 1h-.656a.992.992 0 01-.984-1zm.985 7a.992.992 0 00-.984 1c0 .552.44 1 .984 1h.656a.992.992 0 00.984-1c0-.552-.44-1-.984-1h-.656z" fill="#000007"/></svg>