<svg width="22" height="27" fill="none" xmlns="http://www.w3.org/2000/svg"><path fill-rule="evenodd" clip-rule="evenodd" d="M17.875 2.893c-.76 0-1.375.647-1.375 1.446 0 .8.616 1.447 1.375 1.447.76 0 1.375-.648 1.375-1.447s-.616-1.446-1.375-1.446zM13.75 4.339C13.75 1.943 15.597 0 17.875 0S22 1.943 22 4.34c0 1.889-1.148 3.496-2.75 4.092v1.21c0 2.664-2.052 4.822-4.583 4.822H7.333c-1.012 0-1.833.864-1.833 1.929v2.175c1.602.596 2.75 2.203 2.75 4.093C8.25 25.057 6.403 27 4.125 27S0 25.057 0 22.66c0-1.889 1.148-3.496 2.75-4.092V8.432C1.148 7.836 0 6.229 0 4.339 0 1.943 1.847 0 4.125 0S8.25 1.943 8.25 4.34c0 1.889-1.148 3.496-2.75 4.092v3.54a4.376 4.376 0 011.833-.4h7.334c1.012 0 1.833-.864 1.833-1.93v-1.21c-1.602-.596-2.75-2.203-2.75-4.093zM4.125 21.214c-.76 0-1.375.648-1.375 1.447 0 .798.616 1.446 1.375 1.446.76 0 1.375-.648 1.375-1.446 0-.8-.616-1.447-1.375-1.447zM2.75 4.34c0-.799.616-1.446 1.375-1.446.76 0 1.375.647 1.375 1.446 0 .8-.616 1.447-1.375 1.447-.76 0-1.375-.648-1.375-1.447z" fill="#fff"/></svg>