<svg width="20" height="20" fill="none" xmlns="http://www.w3.org/2000/svg"><path d="M10 20a9.9 9.9 0 01-4.364-1 10.053 10.053 0 01-1.425-.845l-.137-.1a10.09 10.09 0 01-2.964-3.471A9.89 9.89 0 010 10C0 4.477 4.477 0 10 0s10 4.477 10 10a9.891 9.891 0 01-1.109 4.582 10.09 10.09 0 01-2.96 3.47c-.467.342-.963.643-1.482.9l-.08.04A9.9 9.9 0 0110 20zm0-5a3.99 3.99 0 00-3.557 2.167 8.014 8.014 0 007.114 0v-.005A3.987 3.987 0 0010 15zm0-2a6.015 6.015 0 015.23 3.056l.014-.013.014-.012-.017.015-.01.008a8 8 0 10-10.46 0A6.016 6.016 0 0110.001 13zm0-1a4 4 0 110-8 4 4 0 010 8zm0-6a2 2 0 100 4 2 2 0 000-4z" fill="#fff"/></svg>