<svg width="40" height="29" fill="none" xmlns="http://www.w3.org/2000/svg"><path fill-rule="evenodd" clip-rule="evenodd" d="M13.815 3.954a4.985 4.985 0 00-3.59 1.544 5.375 5.375 0 00-1.488 3.727c0 1.398.535 2.739 1.487 3.728a4.985 4.985 0 003.59 1.543 4.985 4.985 0 003.591-1.543 5.375 5.375 0 001.487-3.728 5.375 5.375 0 00-1.487-3.727 4.985 4.985 0 00-3.59-1.544zM4.929 9.225c0-1.529.365-3.034 1.065-4.38a9.106 9.106 0 012.94-3.329 8.675 8.675 0 014.11-1.481 8.595 8.595 0 014.296.722 8.935 8.935 0 013.45 2.753 9.398 9.398 0 011.777 4.122 9.559 9.559 0 01-.321 4.505 9.273 9.273 0 01-2.343 3.806 14.113 14.113 0 015.12 4.403 14.808 14.808 0 012.582 6.36 2.034 2.034 0 01-.34 1.472 1.896 1.896 0 01-1.242.791 1.85 1.85 0 01-1.418-.353 1.99 1.99 0 01-.762-1.29c-.384-2.474-1.605-4.725-3.442-6.35a9.939 9.939 0 00-6.586-2.516 9.939 9.939 0 00-6.587 2.517C5.391 22.6 4.17 24.852 3.786 27.326c-.04.256-.127.502-.258.724-.13.221-.302.413-.505.566a1.871 1.871 0 01-.675.322 1.832 1.832 0 01-1.44-.238 1.932 1.932 0 01-.545-.524 2.05 2.05 0 01-.34-1.472 14.81 14.81 0 012.584-6.357 14.114 14.114 0 015.12-4.401 9.206 9.206 0 01-2.071-3.059 9.5 9.5 0 01-.727-3.662zm22.85-3.953c-.506 0-.99.208-1.347.58-.357.37-.558.873-.558 1.397s.2 1.027.558 1.397c.357.371.841.58 1.346.58a3.72 3.72 0 012.366.855 3.973 3.973 0 011.342 2.196c.196.869.103 1.78-.263 2.587a3.887 3.887 0 01-1.754 1.857 1.933 1.933 0 00-.771.73 2.033 2.033 0 00-.285 1.04v.928c0 .444.143.876.407 1.225.264.349.634.595 1.05.7 3.047.761 5.49 3.162 6.403 6.25.072.25.192.482.35.683.16.201.356.368.577.49a1.841 1.841 0 002.11-.222c.193-.165.353-.369.47-.6a2.044 2.044 0 00.134-1.51 13.36 13.36 0 00-2.464-4.662 12.805 12.805 0 00-4.036-3.276 8.033 8.033 0 001.883-4.054 8.181 8.181 0 00-.553-4.463 7.838 7.838 0 00-2.81-3.427 7.416 7.416 0 00-4.156-1.28z" fill="#090528"/></svg>