<svg width="40" height="40" fill="none" xmlns="http://www.w3.org/2000/svg"><path fill-rule="evenodd" clip-rule="evenodd" d="M16.25 1.875a1.875 1.875 0 00-3.75 0V5H9.375A4.375 4.375 0 005 9.375V12.5H1.875a1.875 1.875 0 000 3.75H5v7.5H1.875a1.875 1.875 0 000 3.75H5v3.125A4.375 4.375 0 009.375 35H12.5v3.125a1.875 1.875 0 003.75 0V35h7.5v3.125a1.875 1.875 0 003.75 0V35h3.125A4.375 4.375 0 0035 30.625V27.5h3.125a1.875 1.875 0 000-3.75H35v-7.5h3.125a1.875 1.875 0 000-3.75H35V9.375A4.375 4.375 0 0030.625 5H27.5V1.875a1.875 1.875 0 00-3.75 0V5h-7.5V1.875zM30.625 31.25H9.375a.625.625 0 01-.625-.625V9.375c0-.345.28-.625.625-.625h21.25c.345 0 .625.28.625.625v21.25c0 .345-.28.625-.625.625zM14.375 12.5c-1.036 0-1.875.84-1.875 1.875v11.25c0 1.035.84 1.875 1.875 1.875h11.25c1.035 0 1.875-.84 1.875-1.875v-11.25c0-1.036-.84-1.875-1.875-1.875h-11.25zm1.875 11.25v-7.5h7.5v7.5h-7.5z" fill="#FF31AD"/></svg>