<svg width="19" height="20" fill="none" xmlns="http://www.w3.org/2000/svg"><path fill-rule="evenodd" clip-rule="evenodd" d="M2.375 2.188C2.375.978 3.305 0 4.453 0h10.094c1.148 0 2.078.98 2.078 2.188v6.25c0 1.208-.93 2.187-2.078 2.187H4.453c-1.148 0-2.078-.98-2.078-2.188v-6.25zm2.078-.313a.305.305 0 00-.297.313v6.25c0 .172.133.312.297.312h10.094c.164 0 .297-.14.297-.313v-6.25a.305.305 0 00-.297-.312H4.453zM0 14.063c0-1.209.93-2.188 2.078-2.188h14.844c1.148 0 2.078.98 2.078 2.188v3.75C19 19.02 18.07 20 16.922 20H2.078C.93 20 0 19.02 0 17.812v-3.75zm2.078-.313a.305.305 0 00-.297.313v3.75c0 .172.133.312.297.312h14.844c.164 0 .297-.14.297-.313v-3.75a.305.305 0 00-.297-.312H2.078z" fill="#000007"/><path fill-rule="evenodd" clip-rule="evenodd" d="M3.563 15.938c0-.518.398-.938.89-.938h.594c.492 0 .89.42.89.938 0 .517-.398.937-.89.937h-.594c-.492 0-.89-.42-.89-.938zm4.75 0c0-.518.398-.938.89-.938h5.344c.492 0 .89.42.89.938 0 .517-.398.937-.89.937H9.203c-.492 0-.89-.42-.89-.938z" fill="#000007"/></svg>