<svg width="19" height="22" fill="none" xmlns="http://www.w3.org/2000/svg"><path fill-rule="evenodd" clip-rule="evenodd" d="M10.224.117a2.293 2.293 0 00-1.448 0L1.651 2.483C.667 2.81 0 3.76 0 4.83v4.957c0 2.206.433 4.482 1.769 6.594 1.334 2.11 3.508 3.96 6.829 5.428a2.23 2.23 0 001.804 0c3.32-1.467 5.495-3.318 6.83-5.428C18.566 14.269 19 11.993 19 9.787V4.83c0-1.071-.667-2.02-1.651-2.347L10.224.117zM9.397 2.13a.328.328 0 01.206 0l7.125 2.366c.14.047.236.182.236.335v4.957c0 1.913-.372 3.755-1.435 5.435-1.063 1.682-2.878 3.298-5.924 4.644a.263.263 0 01-.21 0c-3.046-1.346-4.86-2.962-5.924-4.644-1.063-1.68-1.435-3.522-1.435-5.435V4.83a.35.35 0 01.236-.335l7.125-2.366zm2.139 6.954c0 .782-.41 1.465-1.018 1.83v3.451c0 .583-.456 1.056-1.018 1.056s-1.018-.473-1.018-1.056v-3.451a2.127 2.127 0 01-1.018-1.83c0-1.166.912-2.112 2.036-2.112s2.036.946 2.036 2.112z" fill="#000007"/></svg>