<svg width="25" height="25" fill="none" xmlns="http://www.w3.org/2000/svg"><path fill-rule="evenodd" clip-rule="evenodd" d="M12.098 4.063a1.339 1.339 0 001.893 1.893l2.232-2.233a3.572 3.572 0 115.053 5.054l-4.464 4.464a3.572 3.572 0 01-5.053 0 1.34 1.34 0 00-1.893 1.893 6.248 6.248 0 008.84 0l4.463-4.464a6.25 6.25 0 00-8.839-8.84l-2.232 2.233zM3.723 21.276a3.571 3.571 0 010-5.053l4.465-4.464a3.572 3.572 0 015.053 0 1.34 1.34 0 001.893-1.893 6.249 6.249 0 00-8.84 0L1.832 14.33a6.25 6.25 0 108.839 8.84l2.232-2.233a1.34 1.34 0 00-1.893-1.893l-2.232 2.232a3.572 3.572 0 01-5.054 0z" fill="#fff"/></svg>