<svg width="38" height="38" fill="none" xmlns="http://www.w3.org/2000/svg"><path fill-rule="evenodd" clip-rule="evenodd" d="M33.402 0A20.779 20.779 0 0018.71 6.087l-1.09 1.088A39.754 39.754 0 0015.473 9.5h-7.61a4.156 4.156 0 00-3.538 1.978l-4.06 6.588a1.78 1.78 0 00.992 2.637l7.367 2.265c.088.121.187.238.294.345l5.769 5.766c.109.11.223.209.344.297l2.266 7.367a1.781 1.781 0 002.636.993l6.587-4.054a4.156 4.156 0 001.978-3.54v-7.616a39.757 39.757 0 002.325-2.146l1.088-1.09A20.781 20.781 0 0038 4.597v-.442A4.156 4.156 0 0033.844 0h-.442zM24.94 25.234c-.21.142-.42.28-.632.415l-5.58 3.613 1.3 4.234 4.629-2.85a.594.594 0 00.283-.506v-4.906zM8.738 19.275l3.614-5.581c.138-.214.278-.423.418-.632H7.861a.595.595 0 00-.505.283l-2.85 4.631 4.232 1.3zm12.491-10.67A17.217 17.217 0 0133.4 3.561h.442a.594.594 0 01.593.594v.442a17.219 17.219 0 01-5.041 12.176l-1.09 1.088a36.121 36.121 0 01-5.935 4.797l-5.502 3.563-5.09-5.09 3.563-5.502a36.22 36.22 0 014.797-5.938l1.087-1.088h.005zm7.272 3.27a2.375 2.375 0 11-4.75 0 2.375 2.375 0 014.75 0zM8.457 34.579a3.562 3.562 0 10-5.034-5.035C1.68 31.278.936 35.083.692 36.676a.546.546 0 00.63.63c1.593-.245 5.397-.988 7.135-2.727z" fill="#090528"/></svg>