<svg width="18" height="18" fill="none" xmlns="http://www.w3.org/2000/svg"><path d="M5.657 2.496a7.314 7.314 0 0110.617 5.748.843.843 0 101.679-.173A9 9 0 001.848 3.537L.48 2.169a.281.281 0 00-.48.2v4.1a.281.281 0 00.281.282h4.102a.281.281 0 00.2-.48l-1.53-1.528a7.302 7.302 0 012.603-2.247zM1.42 9.19a.844.844 0 00-1.373.741 9 9 0 0016.105 4.534l1.368 1.368a.281.281 0 00.48-.2v-4.101a.282.282 0 00-.281-.281h-4.102a.281.281 0 00-.2.48l1.529 1.528a7.314 7.314 0 01-13.22-3.5.844.844 0 00-.307-.568z" fill="#000007"/><path d="M10.193 10.194a1.688 1.688 0 11-2.386-2.387 1.688 1.688 0 012.386 2.387z" fill="#000007"/></svg>