<svg width="19" height="21" fill="none" xmlns="http://www.w3.org/2000/svg"><path fill-rule="evenodd" clip-rule="evenodd" d="M15.952 5.675L9.5 2.003l-6.45 3.67L9.5 9.346l6.451-3.67zM2.034 7.409v7.34l6.45 3.67V11.08L2.035 7.41zm8.484 11.01l6.448-3.67V7.411l-6.448 3.67v7.337zM8.484.268a2.056 2.056 0 012.032 0l7.468 4.247c.309.176.565.429.744.734.178.304.272.65.272 1.002v8.497c0 .352-.094.697-.272 1.002a2.017 2.017 0 01-.744.733l-7.468 4.247a2.055 2.055 0 01-2.032 0l-7.468-4.247a2.017 2.017 0 01-.744-.734A1.98 1.98 0 010 14.748V6.253c0-.352.094-.697.272-1.002.178-.305.435-.558.744-.734L8.485.27 8.484.268z" fill="#000007"/></svg>