<svg width="20" height="19" fill="none" xmlns="http://www.w3.org/2000/svg"><path fill-rule="evenodd" clip-rule="evenodd" d="M13.011.288l5.89 3.326c.344.192.62.465.81.785.186.314.289.674.289 1.048v6.009c0 .755-.419 1.454-1.1 1.833l-9.69 5.424h-.003a2.282 2.282 0 01-2.217 0h-.002L1.091 15.41A2.099 2.099 0 010 13.586v-6.04c0-.364.098-.716.276-1.025l.004-.006.013-.023a2.15 2.15 0 01.798-.771L10.802.286a2.268 2.268 0 012.206 0l.003.002zM11.747 1.84a.325.325 0 01.316 0l5.143 2.904-8.94 4.976a.345.345 0 01-.336 0L2.784 6.856l8.963-5.016zm-2.54 9.436l1.704-.949v5.35l-1.875 1.05v-5.365a2.26 2.26 0 00.17-.086zm3.58 3.352V9.284l1.9-1.058v5.338l-1.9 1.064zm3.775-2.113l1.394-.78.002-.001a.319.319 0 00.167-.278V6.313l-1.563.87v5.332zM2.037 13.857l5.125 2.87v-5.365a2.227 2.227 0 01-.172-.086L1.875 8.43v5.155c0 .114.063.218.161.272z" fill="#000007"/></svg>