<svg width="37" height="37" fill="none" xmlns="http://www.w3.org/2000/svg"><path fill-rule="evenodd" clip-rule="evenodd" d="M3.756 16.966V4.382a.626.626 0 01.626-.626h12.584a.627.627 0 01.443.183L33.061 19.59a.623.623 0 010 .887L20.477 33.06a.623.623 0 01-.887 0L3.94 17.409a.627.627 0 01-.184-.443zm-3.756 0V4.382A4.384 4.384 0 014.382 0h12.584c1.162 0 2.279.46 3.1 1.285l15.652 15.651a4.383 4.383 0 010 6.195L23.13 35.718a4.383 4.383 0 01-6.195 0L1.285 20.066A4.384 4.384 0 010 16.966zm12.521-6.95a2.504 2.504 0 100 5.01 2.504 2.504 0 000-5.01z" fill="#090528"/></svg>